<svg width="640" height="360" viewBox="0 0 640 360" fill="none" xmlns="http://www.w3.org/2000/svg" role="img" aria-labelledby="title desc">
  <title id="title">PAN photo resize thumbnail</title>
  <desc id="desc">A modern PAN card converts into a resized passport-size photo frame.</desc>
  <rect width="640" height="360" rx="32" fill="url(#background)"/>
  <circle cx="90" cy="86" r="72" fill="#A5F3FC" fill-opacity=".55"/>
  <circle cx="562" cy="280" r="90" fill="#C4B5FD" fill-opacity=".48"/>
  <path d="M470 45C520 40 562 80 548 124C534 168 480 163 452 131C424 99 431 49 470 45Z" fill="#BBF7D0" fill-opacity=".58"/>
  <path d="M98 277C132 235 190 249 194 296C198 343 134 349 101 329C68 309 72 309 98 277Z" fill="#FDBA74" fill-opacity=".34"/>

  <g filter="url(#cardShadow)">
    <rect x="78" y="96" width="222" height="142" rx="24" fill="url(#panCard)"/>
  </g>
  <rect x="104" y="122" width="62" height="74" rx="18" fill="#FFFFFF" fill-opacity=".84"/>
  <circle cx="135" cy="150" r="15" fill="#60A5FA"/>
  <path d="M111 183C116 166 124 158 135 158C146 158 155 166 160 183H111Z" fill="#7C3AED" fill-opacity=".72"/>
  <rect x="186" y="126" width="74" height="13" rx="6.5" fill="#FFFFFF" fill-opacity=".82"/>
  <rect x="186" y="153" width="88" height="10" rx="5" fill="#FFFFFF" fill-opacity=".55"/>
  <rect x="186" y="176" width="64" height="10" rx="5" fill="#FFFFFF" fill-opacity=".55"/>
  <rect x="105" y="213" width="168" height="10" rx="5" fill="#FFFFFF" fill-opacity=".38"/>
  <rect x="92" y="78" width="64" height="30" rx="15" fill="#FFFFFF" fill-opacity=".94"/>
  <text x="124" y="98" text-anchor="middle" font-family="Inter, ui-sans-serif, system-ui, sans-serif" font-size="15" font-weight="800" fill="#2563EB">PAN</text>

  <g filter="url(#pillShadow)">
    <rect x="310" y="150" width="78" height="60" rx="30" fill="#FFFFFF" fill-opacity=".92"/>
  </g>
  <path d="M334 180H363" stroke="#7C3AED" stroke-width="8" stroke-linecap="round"/>
  <path d="M354 165L369 180L354 195" stroke="#7C3AED" stroke-width="8" stroke-linecap="round" stroke-linejoin="round"/>

  <g filter="url(#photoShadow)">
    <rect x="420" y="74" width="142" height="212" rx="28" fill="#FFFFFF" fill-opacity=".96"/>
  </g>
  <rect x="442" y="98" width="98" height="164" rx="20" fill="url(#photoFrame)"/>
  <circle cx="491" cy="154" r="24" fill="#FFFFFF" fill-opacity=".68"/>
  <path d="M454 232C461 199 474 184 491 184C509 184 522 199 528 232H454Z" fill="#FFFFFF" fill-opacity=".72"/>
  <rect x="432" y="88" width="118" height="184" rx="24" stroke="#2563EB" stroke-width="5" stroke-linecap="round" stroke-dasharray="14 12"/>
  <circle cx="550" cy="96" r="10" fill="#22C55E"/>
  <circle cx="432" cy="272" r="10" fill="#22C55E"/>

  <rect x="476" y="305" width="78" height="12" rx="6" fill="#FFFFFF" fill-opacity=".7"/>
  <rect x="406" y="306" width="48" height="12" rx="6" fill="#FFFFFF" fill-opacity=".46"/>
  <rect x="72" y="260" width="86" height="12" rx="6" fill="#FFFFFF" fill-opacity=".5"/>

  <defs>
    <linearGradient id="background" x1="52" y1="24" x2="574" y2="344" gradientUnits="userSpaceOnUse">
      <stop stop-color="#EFF6FF"/>
      <stop offset=".5" stop-color="#F5F3FF"/>
      <stop offset="1" stop-color="#ECFDF5"/>
    </linearGradient>
    <linearGradient id="panCard" x1="84" y1="101" x2="288" y2="232" gradientUnits="userSpaceOnUse">
      <stop stop-color="#38BDF8"/>
      <stop offset=".5" stop-color="#6366F1"/>
      <stop offset="1" stop-color="#A855F7"/>
    </linearGradient>
    <linearGradient id="photoFrame" x1="452" y1="106" x2="528" y2="254" gradientUnits="userSpaceOnUse">
      <stop stop-color="#38BDF8"/>
      <stop offset=".55" stop-color="#818CF8"/>
      <stop offset="1" stop-color="#A78BFA"/>
    </linearGradient>
    <filter id="cardShadow" x="54" y="78" width="270" height="190" filterUnits="userSpaceOnUse" color-interpolation-filters="sRGB">
      <feFlood flood-opacity="0" result="BackgroundImageFix"/>
      <feColorMatrix in="SourceAlpha" type="matrix" values="0 0 0 0 0 0 0 0 0 0 0 0 0 0 0 0 0 0 127 0" result="hardAlpha"/>
      <feOffset dy="6"/>
      <feGaussianBlur stdDeviation="12"/>
      <feComposite in2="hardAlpha" operator="out"/>
      <feColorMatrix type="matrix" values="0 0 0 0 0.0588235 0 0 0 0 0.0901961 0 0 0 0 0.164706 0 0 0 0.14 0"/>
      <feBlend mode="normal" in2="BackgroundImageFix" result="effect1_dropShadow"/>
      <feBlend mode="normal" in="SourceGraphic" in2="effect1_dropShadow" result="shape"/>
    </filter>
    <filter id="pillShadow" x="292" y="136" width="114" height="96" filterUnits="userSpaceOnUse" color-interpolation-filters="sRGB">
      <feFlood flood-opacity="0" result="BackgroundImageFix"/>
      <feColorMatrix in="SourceAlpha" type="matrix" values="0 0 0 0 0 0 0 0 0 0 0 0 0 0 0 0 0 0 127 0" result="hardAlpha"/>
      <feOffset dy="4"/>
      <feGaussianBlur stdDeviation="9"/>
      <feComposite in2="hardAlpha" operator="out"/>
      <feColorMatrix type="matrix" values="0 0 0 0 0.0588235 0 0 0 0 0.0901961 0 0 0 0 0.164706 0 0 0 0.10 0"/>
      <feBlend mode="normal" in2="BackgroundImageFix" result="effect1_dropShadow"/>
      <feBlend mode="normal" in="SourceGraphic" in2="effect1_dropShadow" result="shape"/>
    </filter>
    <filter id="photoShadow" x="396" y="54" width="190" height="260" filterUnits="userSpaceOnUse" color-interpolation-filters="sRGB">
      <feFlood flood-opacity="0" result="BackgroundImageFix"/>
      <feColorMatrix in="SourceAlpha" type="matrix" values="0 0 0 0 0 0 0 0 0 0 0 0 0 0 0 0 0 0 127 0" result="hardAlpha"/>
      <feOffset dy="4"/>
      <feGaussianBlur stdDeviation="12"/>
      <feComposite in2="hardAlpha" operator="out"/>
      <feColorMatrix type="matrix" values="0 0 0 0 0.0588235 0 0 0 0 0.0901961 0 0 0 0 0.164706 0 0 0 0.12 0"/>
      <feBlend mode="normal" in2="BackgroundImageFix" result="effect1_dropShadow"/>
      <feBlend mode="normal" in="SourceGraphic" in2="effect1_dropShadow" result="shape"/>
    </filter>
  </defs>
</svg>
