<svg width="1120" height="256" viewBox="0 0 1120 256" fill="none" xmlns="http://www.w3.org/2000/svg" role="img" aria-labelledby="title desc">
  <title id="title">FileWalaTool logo</title>
  <desc id="desc">Horizontal FileWalaTool logo with document tool icon and wordmark.</desc>
  <g>
    <path d="M48 28h88l40 40v160H48V28Z" fill="#111111"/>
    <path d="M136 28v40h40" fill="#FFFFFF" fill-opacity=".18"/>
    <path d="M68 66h52v24H92v24h36v24H92v48H68V66Z" fill="#FFFFFF"/>
    <path d="M126 120l15 44 14-44h16l14 44 15-44h21l-25 66h-21l-12-35-12 35h-21l-25-66h21Z" fill="#FFFFFF"/>
    <path d="M160 80h42v18h-24v24h-18V80Z" fill="#E11D2E"/>
    <path d="M188 89l-39 39" stroke="#E11D2E" stroke-width="14" stroke-linecap="round"/>
  </g>
  <text x="240" y="154" fill="#111111" font-family="Inter, ui-sans-serif, system-ui, -apple-system, BlinkMacSystemFont, Segoe UI, sans-serif" font-size="82" font-weight="800" letter-spacing="-1">
    FileWala<tspan fill="#E11D2E">Tool</tspan>
  </text>
  <rect x="242" y="176" width="120" height="8" rx="4" fill="#E11D2E"/>
</svg>
